<svg xmlns="http://www.w3.org/2000/svg" viewBox="0 0 225.42 51.54"><defs><style>.cls-1{fill:#000015;}.cls-2{fill:#002fa7;}</style></defs><g id="图层_2" data-name="图层 2"><g id="图层_1-2" data-name="图层 1"><polygon class="cls-1" points="63.72 8.8 21.05 8.8 21.05 0.04 66.92 0 63.72 8.8"/><polygon class="cls-1" points="55.52 30.08 9.25 30.08 13.93 21.32 58.52 21.32 55.52 30.08"/><polygon class="cls-2" points="86.8 0 68.77 51.4 55.39 51.4 73.7 0 86.8 0"/><polygon class="cls-1" points="48.26 51.4 0 51.4 3.1 42.64 51.27 42.46 48.26 51.4"/><rect x="135.55" y="0.04" width="40.09" height="8.76"/><rect x="135.55" y="21.32" width="40.09" height="8.76"/><rect x="135.55" y="42.61" width="40.09" height="8.76"/><path d="M104.6,12.69h-.84L91.53,51.36H76.91L94.83,0h18.91l17.78,51.32h-14.9Zm0,0h-.84"/><polygon points="20.31 29.52 7.67 30.08 18.3 0 30.41 0.09 20.31 29.52"/><rect x="135.15" width="11.73" height="29.76"/><rect x="185.27" width="13.09" height="51.4"/><rect x="212.34" y="0.13" width="13.09" height="51.4"/></g></g></svg>